<svg xmlns="http://www.w3.org/2000/svg" width="337" height="271" viewBox="0 0 337 271">
<g>
<path d="M 266.52 247.75 C266.88,250.09 266.96,252.00 266.70,252.00 C266.23,252.00 236.37,225.22 215.00,205.64 C209.23,200.35 203.96,196.01 203.29,196.01 C202.63,196.00 197.68,197.57 192.29,199.50 C181.63,203.31 177.49,204.02 180.04,201.61 C182.18,199.57 211.73,179.00 212.51,179.00 C212.88,179.00 219.10,184.62 226.34,191.49 C233.58,198.35 239.65,203.54 239.82,203.01 C240.13,202.11 239.18,197.23 233.42,170.00 C233.02,168.15 232.66,166.45 232.33,164.88 C229.11,149.76 228.56,147.15 229.61,145.93 C229.94,145.55 230.43,145.31 231.04,144.86 C232.39,143.88 240.93,137.85 250.00,131.48 C259.08,125.10 267.16,119.23 267.96,118.44 C269.24,117.19 266.43,117.00 246.25,117.00 C244.18,117.00 242.28,117.01 240.55,117.01 C228.43,117.05 224.19,117.06 222.23,114.95 C220.90,113.51 220.63,111.08 219.66,107.00 C218.81,103.43 216.99,95.78 215.62,90.00 C214.24,84.22 212.98,78.41 212.81,77.08 C212.64,75.75 212.01,74.50 211.42,74.30 C210.83,74.11 206.60,82.40 202.02,92.72 C197.45,103.05 193.26,112.08 192.70,112.79 C191.99,113.70 189.21,113.99 183.10,113.79 C175.44,113.53 174.53,113.30 174.81,111.69 C174.98,110.69 181.58,95.39 189.49,77.69 C212.38,26.40 215.50,19.67 216.53,19.33 C217.06,19.16 218.96,25.20 220.74,32.76 L 228.57 66.00 C231.10,76.72 233.92,88.65 234.83,92.50 L 236.50 99.50 L 324.50 100.50 L 316.00 106.59 C305.25,114.30 269.30,139.46 257.67,147.42 L 248.84 153.47 L 249.48 157.98 C249.83,160.47 253.66,180.73 257.99,203.00 C262.32,225.27 266.16,245.41 266.52,247.75 ZM 76.00 241.44 C39.94,255.68 33.69,257.88 36.08,255.50 C36.86,254.72 41.10,252.12 45.50,249.73 C60.12,241.79 90.39,224.80 98.50,219.98 C112.22,211.84 139.51,197.42 164.50,185.11 C187.45,173.80 195.61,170.28 196.58,171.24 C196.82,171.49 190.60,177.11 182.76,183.75 C174.92,190.38 163.81,199.84 158.09,204.76 L 147.68 213.72 L 128.59 220.97 C118.09,224.95 94.43,234.16 76.00,241.44 Z" fill="rgb(27,191,219)"/>
<path d="M 56.50 228.13 C43.30,233.04 31.04,237.71 29.25,238.51 C23.77,240.97 25.63,238.52 32.75,233.92 C41.75,228.10 47.73,221.78 51.12,214.50 C52.69,211.15 55.93,199.67 58.47,188.50 C60.97,177.50 64.14,163.66 65.51,157.75 C76.13,111.97 78.88,99.76 79.57,95.35 C80.88,87.03 76.72,80.80 68.97,79.50 C57.73,77.60 68.61,77.00 114.50,77.00 C141.73,77.00 164.00,77.18 164.00,77.41 C164.00,77.63 162.66,80.80 161.02,84.45 L 158.05 91.08 L 155.32 89.29 C153.00,87.76 149.80,87.45 133.68,87.17 C123.27,86.99 114.39,87.21 113.94,87.67 C113.49,88.13 112.21,92.78 111.10,98.00 C109.99,103.22 107.48,114.25 105.53,122.50 C103.58,130.75 102.20,138.06 102.46,138.75 C102.82,139.70 108.11,140.00 124.22,139.99 C147.31,139.99 156.11,139.05 159.99,136.17 C162.40,134.39 166.40,129.21 167.30,126.70 C167.53,126.04 168.08,125.83 168.52,126.24 C168.95,126.64 168.32,131.14 167.10,136.24 C165.89,141.33 164.22,148.43 163.40,152.00 C160.69,163.74 159.92,166.07 158.95,165.47 C158.43,165.15 158.00,163.43 158.00,161.66 C158.00,157.67 155.85,154.50 151.69,152.33 C149.05,150.95 144.42,150.60 125.00,150.27 C112.07,150.06 100.95,150.27 100.27,150.74 C98.30,152.11 89.86,189.48 89.67,197.72 C89.52,203.96 89.80,205.24 91.70,207.15 C92.97,208.41 95.74,209.61 98.20,209.95 L 102.50 210.54 L 91.50 214.87 C85.45,217.25 69.70,223.21 56.50,228.13 Z" fill="rgb(26,37,53)"/>
<path d="M 76.00 241.44 C90.05,235.89 107.14,229.22 119.12,224.60 C106.03,229.68 85.87,237.62 68.40,244.59 C45.79,253.62 26.89,260.99 26.40,260.97 C25.02,260.92 32.49,256.46 42.50,251.36 C42.78,251.22 43.06,251.07 43.33,250.93 C39.78,252.94 36.73,254.85 36.08,255.50 C33.69,257.88 39.94,255.68 76.00,241.44 ZM 186.42 201.50 C180.36,203.54 175.60,204.94 175.37,204.71 C175.11,204.44 176.61,203.18 178.70,201.90 C180.30,200.92 185.54,197.37 191.53,193.22 C185.77,197.28 180.86,200.82 180.04,201.61 C178.03,203.51 180.18,203.47 186.42,201.50 ZM 55.55 244.21 C59.07,242.20 65.22,238.75 72.00,234.99 C82.18,229.35 94.10,222.60 98.50,219.98 C91.97,223.86 71.08,235.63 55.55,244.21 ZM 203.33 196.01 C202.63,196.09 198.62,197.34 193.51,199.07 C198.41,197.34 202.68,196.00 203.29,196.01 C203.30,196.01 203.31,196.01 203.33,196.01 ZM 201.23 186.46 C206.64,182.72 210.96,179.83 212.18,179.15 C210.93,179.85 206.46,182.86 201.23,186.46 Z" fill="rgb(147,213,224)"/>
<path d="M 0.00 135.50 L 0.00 0.00 L 168.50 0.00 L 337.00 0.00 L 337.00 135.50 L 337.00 271.00 L 168.50 271.00 L 0.00 271.00 L 0.00 135.50 ZM 68.40 244.59 C91.00,235.57 118.09,224.93 128.59,220.95 L 147.68 213.72 L 158.09 204.76 C163.81,199.84 174.92,190.38 182.76,183.75 C190.60,177.11 196.82,171.49 196.58,171.24 C195.61,170.28 187.45,173.80 164.50,185.11 C139.51,197.42 112.22,211.84 98.50,219.98 C94.10,222.60 82.18,229.35 72.00,234.99 C61.83,240.63 53.05,245.59 52.50,246.01 C51.95,246.43 47.45,248.83 42.50,251.36 C32.49,256.46 25.02,260.92 26.40,260.97 C26.89,260.99 45.79,253.62 68.40,244.59 ZM 266.52 247.75 C266.16,245.41 262.32,225.27 257.99,203.00 C253.66,180.73 249.83,160.47 249.48,157.98 L 248.84 153.47 L 257.67 147.42 C269.30,139.46 305.25,114.30 316.00,106.59 L 324.50 100.50 L 280.50 100.00 L 236.50 99.50 L 234.83 92.50 C233.92,88.65 231.10,76.72 228.57,66.00 C226.04,55.28 222.52,40.32 220.74,32.76 C218.96,25.20 217.06,19.16 216.53,19.33 C215.50,19.67 212.38,26.40 189.49,77.69 C181.58,95.39 174.98,110.69 174.81,111.69 C174.53,113.30 175.44,113.53 183.10,113.79 C189.21,113.99 191.99,113.70 192.70,112.79 C193.26,112.08 197.45,103.05 202.02,92.72 C206.60,82.40 210.83,74.11 211.42,74.30 C212.01,74.50 212.64,75.75 212.81,77.08 C212.98,78.41 214.24,84.22 215.62,90.00 C216.99,95.78 218.81,103.43 219.66,107.00 C222.26,117.92 219.81,117.00 246.25,117.00 C266.43,117.00 269.24,117.19 267.96,118.44 C267.16,119.23 259.08,125.10 250.00,131.48 C240.93,137.85 232.39,143.88 231.04,144.86 C228.27,146.88 228.07,144.74 233.42,170.00 C239.18,197.23 240.13,202.11 239.82,203.01 C239.65,203.54 233.58,198.35 226.34,191.49 C219.10,184.62 212.88,179.00 212.51,179.00 C212.14,179.00 205.24,183.63 197.17,189.29 C189.10,194.95 180.79,200.62 178.70,201.90 C176.61,203.18 175.11,204.44 175.37,204.71 C175.64,204.97 181.79,203.12 189.06,200.59 C196.32,198.07 202.77,196.00 203.38,196.01 C204.00,196.01 209.23,200.35 215.00,205.64 C236.37,225.22 266.23,252.00 266.70,252.00 C266.96,252.00 266.88,250.09 266.52,247.75 ZM 56.50 228.13 C69.70,223.21 85.45,217.25 91.50,214.87 L 102.50 210.54 L 98.20 209.95 C95.74,209.61 92.97,208.41 91.70,207.15 C89.80,205.24 89.52,203.96 89.67,197.72 C89.86,189.48 98.30,152.11 100.27,150.74 C100.95,150.27 112.07,150.06 125.00,150.27 C144.42,150.60 149.05,150.95 151.69,152.33 C155.85,154.50 158.00,157.67 158.00,161.66 C158.00,163.43 158.43,165.15 158.95,165.47 C159.92,166.07 160.69,163.74 163.40,152.00 C164.22,148.43 165.89,141.33 167.10,136.24 C168.32,131.14 168.95,126.64 168.52,126.24 C168.08,125.83 167.53,126.04 167.30,126.70 C166.40,129.21 162.40,134.39 159.99,136.17 C156.11,139.05 147.31,139.99 124.22,139.99 C108.11,140.00 102.82,139.70 102.46,138.75 C102.20,138.06 103.58,130.75 105.53,122.50 C107.48,114.25 109.99,103.22 111.10,98.00 C112.21,92.78 113.49,88.13 113.94,87.67 C114.39,87.21 123.27,86.99 133.68,87.17 C149.80,87.45 153.00,87.76 155.32,89.29 L 158.05 91.08 L 161.02 84.45 C162.66,80.80 164.00,77.63 164.00,77.41 C164.00,77.18 141.73,77.00 114.50,77.00 C68.61,77.00 57.73,77.60 68.97,79.50 C76.72,80.80 80.88,87.03 79.57,95.35 C78.88,99.76 76.13,111.97 65.51,157.75 C64.14,163.66 60.97,177.50 58.47,188.50 C55.93,199.67 52.69,211.15 51.12,214.50 C47.73,221.78 41.75,228.10 32.75,233.92 C25.63,238.52 23.77,240.97 29.25,238.51 C31.04,237.71 43.30,233.04 56.50,228.13 Z" fill="rgb(252,253,253)"/>
</g>
</svg>